# xmcd
#
# Track frame offsets: 
#        150
#        12047
#        25495
#        38502
#        51627
#        58557
#        71590
#        83932
#        93077
#        105387
#        117197
#        129037
#        141565
#        157077
#        169990
#        183457
#
# Disc length: 2622 seconds
#
# Revision: 0
# Processed by: cddbd v1.5.1PL0 Copyright (c) Steve Scherf et al.
# Submitted via: ExactAudioCopy v0.95a5
#
DISCID=d50a3c10
DTITLE=Various Artist - The Great Soul Legends
DYEAR=1994
DGENRE=Soul
TTITLE0=Sam and Dave - Soul Man
TTITLE1=Eddie Floyd - Knock On Wood
TTITLE2=Bob and Earl - Harlem Shuffle
TTITLE3=Mary Wells - My Guy
TTITLE4=Maurice Williams and The Zodiacs - Stay
TTITLE5=Lloyd Price - Stagger Lee
TTITLE6=Aaron Neville - Tell It Like It Is
TTITLE7=Gladys Knight and The Pipps - Every Beat Of My Heart
TTITLE8=Ike and Tina Turner - So Fine
TTITLE9=Inez Foxx - Mockingbird
TTITLE10=Maxine Brown - Oh No, Not My Baby
TTITLE11=Climax - Precious and Few
TTITLE12=Al Wilson - Show and Tell
TTITLE13=The Whisperers - Seems Like I Gotta Do Wrong
TTITLE14=Ben E. King - Stand By Me
TTITLE15=Percy Sledge - When a Man Loves a Woman
EXTD=
EXTT0=
EXTT1=
EXTT2=
EXTT3=
EXTT4=
EXTT5=
EXTT6=
EXTT7=
EXTT8=
EXTT9=
EXTT10=
EXTT11=
EXTT12=
EXTT13=
EXTT14=
EXTT15=
PLAYORDER=
